<svg width="382.00001220703126" height="185.19497905000242" viewBox="0 0 350 169.68125810522625" class="looka-1j8o68f"><defs id="SvgjsDefs1196"></defs><g id="SvgjsG1197" featurekey="mugSzh-0" transform="matrix(1.471206389239176,0,0,1.471206389239176,101.74737284573351,-26.84804620538353)" fill="#111111"><path xmlns="http://www.w3.org/2000/svg" fill="#111111" d="M95,78.999H84.5v-41.25h6c0.002,0,0.004,0,0.005,0c0.414,0,0.75-0.336,0.75-0.75  c0-0.094-0.017-0.183-0.048-0.266l-2.229-8.916c-0.084-0.334-0.386-0.568-0.729-0.568h-9c-0.345,0-0.646,0.234-0.729,0.568l-2.25,9  c-0.056,0.224-0.006,0.461,0.139,0.643c0.142,0.183,0.359,0.289,0.591,0.289h6v41.25h-7.5v-3H77c0.414,0,0.75-0.336,0.75-0.75v-13.5  c0-0.414-0.336-0.75-0.75-0.75h-3.75v-3.75c0-1.654-1.346-3-3-3h-13.5c-0.896,0-1.699,0.396-2.25,1.021  c-0.551-0.625-1.354-1.021-2.25-1.021h-13.5c-1.654,0-3,1.346-3,3v3.75H32c-0.414,0-0.75,0.336-0.75,0.75v13.5  c0,0.414,0.336,0.75,0.75,0.75h1.5v3h-7.939l-6.311-6.311v-5.689h2.482h3.518c0.414,0,0.75-0.336,0.75-0.75s-0.336-0.75-0.75-0.75  h-2.616l1.086-5.863c0.041-0.219-0.019-0.445-0.161-0.615c-0.142-0.172-0.354-0.271-0.576-0.271H20.57l0.803-7.301  c0.216,0.052,0.438,0.082,0.661,0.082c1.013,0,1.956-0.546,2.461-1.421c1.703-2.948,0.912-6.008,0.877-6.137  c-0.107-0.399-0.519-0.637-0.918-0.531c-0.129,0.035-3.173,0.881-4.876,3.83c-0.637,1.104-0.446,2.461,0.378,3.351L19.06,58.75  h-1.141l-0.908-10.301c0.668-0.488,1.147-1.183,1.365-1.993c0.251-0.939,0.123-1.922-0.364-2.766  c-2.298-3.979-6.403-5.118-6.577-5.166c-0.192-0.051-0.397-0.024-0.569,0.075c-0.172,0.1-0.298,0.263-0.349,0.455  c-0.046,0.174-1.113,4.297,1.186,8.279c0.648,1.124,1.858,1.821,3.157,1.821c0.236,0,0.471-0.023,0.702-0.068l0.852,9.662h-2.431  c-0.223,0-0.435,0.102-0.577,0.271c-0.143,0.172-0.202,0.396-0.161,0.615l1.086,5.863H11.75c-0.414,0-0.75,0.336-0.75,0.75  S11.336,67,11.75,67h3.482h2.518v5.688L11.439,79H5c-0.414,0-0.75,0.336-0.75,0.75S4.586,80.5,5,80.5h90  c0.414,0,0.75-0.336,0.75-0.75S95.414,78.999,95,78.999z M79.836,28.749h7.828l1.875,7.5H77.961L79.836,28.749z M20.875,48.021  c0.902-1.562,2.302-2.414,3.174-2.819c0.085,0.96,0.047,2.598-0.854,4.159c-0.239,0.414-0.684,0.67-1.162,0.67  c-0.233,0-0.464-0.062-0.668-0.18C20.727,49.481,20.507,48.661,20.875,48.021z M13.001,46.583c-1.42-2.46-1.341-5.048-1.179-6.326  c1.189,0.499,3.47,1.725,4.89,4.184c0.286,0.496,0.362,1.074,0.214,1.627c-0.148,0.554-0.502,1.016-0.999,1.302  c-0.326,0.188-0.695,0.287-1.068,0.287C14.095,47.655,13.383,47.245,13.001,46.583z M14.884,60.249h7.197l-0.972,5.25h-5.252  L14.884,60.249z M53.75,69.999h-16.5v-3h16.5V69.999z M55.25,66.999h16.5v3h-16.5V66.999z M56.75,55.749h13.5  c0.827,0,1.5,0.673,1.5,1.5v8.25h-16.5v-8.25C55.25,56.422,55.923,55.749,56.75,55.749z M37.25,57.249c0-0.827,0.673-1.5,1.5-1.5  h13.5c0.827,0,1.5,0.673,1.5,1.5v8.25h-16.5V57.249z M32.75,62.499h3v8.25c0,0.414,0.336,0.75,0.75,0.75h18h18  c0.414,0,0.75-0.336,0.75-0.75v-8.25h3v12h-43.5V62.499z M35,75.999h39v3H35V75.999z M23.439,78.999H19.25V74.81L23.439,78.999z   M17.75,74.81v4.189h-4.189L17.75,74.81z"></path><path xmlns="http://www.w3.org/2000/svg" fill="#111111" d="M23,35.499h13.5c0.414,0,0.75-0.336,0.75-0.75v-15.75c0-0.414-0.336-0.75-0.75-0.75h-6.22H23  c-0.414,0-0.75,0.336-0.75,0.75v10.864v4.886C22.25,35.163,22.586,35.499,23,35.499z M35.75,33.999h-12v-3.157  c0.492,0.1,0.993,0.157,1.5,0.157c4.136,0,7.5-3.364,7.5-7.5c0-1.328-0.353-2.618-1.007-3.75h4.007V33.999z M23.75,19.749h6.183  c0.852,1.062,1.317,2.381,1.317,3.75c0,3.309-2.691,6-6,6c-0.509,0-1.011-0.064-1.5-0.189V19.749z"></path><path xmlns="http://www.w3.org/2000/svg" fill="#111111" d="M41,44.499h27c0.414,0,0.75-0.336,0.75-0.75v-20.25c0-0.414-0.336-0.75-0.75-0.75H41  c-0.414,0-0.75,0.336-0.75,0.75v20.25C40.25,44.163,40.586,44.499,41,44.499z M41.75,37.31l3.75-3.75l9.439,9.439H41.75V37.31z   M67.25,24.249v18.75H57.061L46.03,31.969c-0.293-0.293-0.768-0.293-1.061,0l-3.219,3.219V24.249H67.25z"></path><path xmlns="http://www.w3.org/2000/svg" fill="#111111" d="M59,37.749c2.895,0,5.25-2.355,5.25-5.25s-2.355-5.25-5.25-5.25s-5.25,2.355-5.25,5.25  S56.105,37.749,59,37.749z M59,28.749c2.068,0,3.75,1.682,3.75,3.75s-1.682,3.75-3.75,3.75s-3.75-1.682-3.75-3.75  S56.932,28.749,59,28.749z"></path></g><g id="SvgjsG1198" featurekey="PPkF4s-0" transform="matrix(2.3995612130496644,0,0,2.3995612130496644,-0.5279041076228981,99.66625568530071)" fill="#111111"><path d="M11.04 14.76 q0 1.7 -0.71 2.94 t-1.99 1.91 t-2.98 0.67 q-1.76 0 -3.1 -0.84 t-2.04 -2.36 l2.88 -1.22 q0.32 0.68 0.87 1.15 t1.39 0.47 q1.46 0 1.98 -0.82 t0.52 -1.9 l0 -9.36 l3.18 0 l0 9.36 z M14.02 15.54 l0 -6.5 l3.02 0 l0 6.5 q0 1.18 0.59 1.69 t1.55 0.51 q0.84 0 1.5 -0.65 t0.6 -2.23 l0 -5.82 l3 0 l0 10.96 l-3 0 l0 -0.94 q-0.54 0.56 -1.31 0.87 t-1.63 0.31 q-4.32 0 -4.32 -4.7 z M35.54 18.9 q-0.38 0.52 -1.31 0.93 t-2.03 0.41 q-1.7 0 -2.95 -0.76 t-1.91 -2.07 t-0.66 -2.91 t0.66 -2.91 t1.91 -2.07 t2.95 -0.76 q1.14 0 2.01 0.39 t1.33 0.99 l0 -1.14 l2.96 0 l0 11 l-2.96 0 l0 -1.1 z M34.84 12.25 q-0.82 -0.87 -2.2 -0.87 q-1.4 0 -2.21 0.87 t-0.81 2.25 q0 1.34 0.83 2.22 t2.19 0.88 q1.4 0 2.21 -0.83 t0.81 -2.27 q0 -1.38 -0.82 -2.25 z M50.67 10.02 q1.03 1.22 1.03 3.48 l0 6.5 l-3.06 0 l0 -6.5 q0 -2.22 -2.12 -2.22 q-0.82 0 -1.48 0.65 t-0.62 2.25 l0 5.82 l-2.98 0 l0 -11 l2.98 0 l0 0.98 q0.54 -0.54 1.36 -0.86 t1.58 -0.32 q2.28 0 3.31 1.22 z M71.89 19.18 q-1.85 1.1 -4.03 1.1 q-2.14 0 -3.95 -1.02 t-2.87 -2.76 t-1.06 -3.8 q0 -2.04 1.06 -3.78 t2.87 -2.76 t3.95 -1.02 q2.16 0 4.02 1.09 t2.92 2.91 l-2.94 1.14 q-0.7 -1 -1.77 -1.64 t-2.23 -0.64 q-1.28 0 -2.36 0.65 t-1.71 1.73 t-0.63 2.32 t0.63 2.33 t1.71 1.74 t2.36 0.65 q1.16 0 2.23 -0.65 t1.77 -1.67 l2.94 1.14 q-1.06 1.84 -2.91 2.94 z M85.13999999999999 18.9 q-0.38 0.52 -1.31 0.93 t-2.03 0.41 q-1.7 0 -2.95 -0.76 t-1.91 -2.07 t-0.66 -2.91 t0.66 -2.91 t1.91 -2.07 t2.95 -0.76 q1.14 0 2.01 0.39 t1.33 0.99 l0 -1.14 l2.96 0 l0 11 l-2.96 0 l0 -1.1 z M84.43999999999998 12.25 q-0.82 -0.87 -2.2 -0.87 q-1.4 0 -2.21 0.87 t-0.81 2.25 q0 1.34 0.83 2.22 t2.19 0.88 q1.4 0 2.21 -0.83 t0.81 -2.27 q0 -1.38 -0.82 -2.25 z M96.3 11.87 q-0.86 0.21 -1.58 0.99 t-0.72 2.28 l0 4.86 l-2.98 0 l0 -11 l2.98 0 l0 1.46 q0.74 -0.98 1.81 -1.33 t1.95 -0.33 l0 2.92 q-0.6 -0.06 -1.46 0.15 z M108.75 10.02 q1.03 1.22 1.03 3.48 l0 6.5 l-3.06 0 l0 -6.5 q0 -2.22 -2.12 -2.22 q-0.82 0 -1.48 0.65 t-0.62 2.25 l0 5.82 l-2.98 0 l0 -11 l2.98 0 l0 0.98 q0.54 -0.54 1.36 -0.86 t1.58 -0.32 q2.28 0 3.31 1.22 z M115.14999999999999 19.49 q-1.37 -0.77 -2.17 -2.09 t-0.8 -2.88 q0 -1.54 0.8 -2.86 t2.17 -2.09 t2.99 -0.77 t3 0.77 t2.19 2.09 t0.81 2.86 q0 1.56 -0.81 2.88 t-2.19 2.09 t-3 0.77 t-2.99 -0.77 z M116.61999999999999 11.83 q-0.7 0.41 -1.1 1.12 t-0.4 1.57 q0 0.9 0.39 1.61 t1.08 1.12 t1.55 0.41 q0.84 0 1.53 -0.41 t1.09 -1.13 t0.4 -1.6 q0 -0.86 -0.4 -1.57 t-1.09 -1.12 t-1.53 -0.41 q-0.82 0 -1.52 0.41 z M130.28 16.08 q0 0.7 0.24 1.17 t1.12 0.47 q0.4 0 0.76 -0.04 l0 2.52 q-0.72 0.08 -1.34 0.08 q-1.28 0 -2.07 -0.21 t-1.23 -0.81 t-0.44 -1.72 l0 -6.1 l-1.34 0 l0 -2.62 l1.34 0 l0 -2.94 l2.96 0 l0 2.94 l2.2 0 l0 2.62 l-2.2 0 l0 4.64 z M143.11999999999998 18.9 q-0.38 0.52 -1.31 0.93 t-2.03 0.41 q-1.7 0 -2.95 -0.76 t-1.91 -2.07 t-0.66 -2.91 t0.66 -2.91 t1.91 -2.07 t2.95 -0.76 q1.14 0 2.01 0.39 t1.33 0.99 l0 -1.14 l2.96 0 l0 11 l-2.96 0 l0 -1.1 z M142.42 12.25 q-0.82 -0.87 -2.2 -0.87 q-1.4 0 -2.21 0.87 t-0.81 2.25 q0 1.34 0.83 2.22 t2.19 0.88 q1.4 0 2.21 -0.83 t0.81 -2.27 q0 -1.38 -0.82 -2.25 z"></path></g><g id="SvgjsG1199" featurekey="uwAHB0-0" transform="matrix(0.6390184719062935,0,0,0.6390184719062935,33.7603042041138,156.67084162718817)" fill="#111111"><path d="M6.32 12.08 q1.28 0 2.1 -0.63 t0.84 -1.87 q0 -1.16 -0.82 -1.85 t-2.18 -0.69 l-3 0 l0 5.04 l3.06 0 z M5.98 5.84 q2.16 0 3.36 0.96 t1.24 2.78 q0 1.7 -1.16 2.69 t-3.02 1.01 l-3.14 0 l0 6.72 l-1.32 0 l0 -14.16 l4.04 0 z M25.408 5.84 l0 14.16 l-1.32 0 l0 -14.16 l1.32 0 z M41.656 5.84 l8.62 12.4 l0.04 0 l0 -12.4 l1.32 0 l0 14.16 l-1.7 0 l-8.62 -12.4 l-0.04 0 l0 12.4 l-1.32 0 l0 -14.16 l1.7 0 z M75.484 5.84 l0 1.2 l-4.84 0 l0 12.96 l-1.32 0 l0 -12.96 l-4.84 0 l0 -1.2 l11 0 z M89.392 5.84 l0 8.5 q0 2.3 0.95 3.54 t2.89 1.28 q3.8 0 3.84 -5.02 l0 -8.3 l1.32 0 l0 8.64 q0 2.78 -1.3 4.32 t-3.86 1.56 q-2.52 0 -3.83 -1.53 t-1.33 -4.25 l0 -8.74 l1.32 0 z M116.89999999999999 12.08 q1.54 0 2.38 -0.69 t0.84 -1.83 t-0.82 -1.82 t-2.44 -0.7 l-2.86 0 l0 5.04 l2.9 0 z M116.5 5.84 q4.9 0 4.94 3.72 q0 3.14 -3.62 3.64 l4.12 6.8 l-1.5 0 l-3.98 -6.72 l-2.46 0 l0 6.72 l-1.32 0 l0 -14.16 l3.82 0 z M136.868 15.04 l6.5 0 l-3.2 -7.76 z M140.908 5.84 l5.96 14.16 l-1.48 0 l-1.54 -3.76 l-7.5 0 l-1.6 3.76 l-1.38 0 l6.18 -14.16 l1.36 0 z M174.964 5.84 l4.28 6.72 l4.38 -6.72 l1.48 0 l-5.2 8.06 l0 6.1 l-1.32 0 l0 -6.1 l-5.2 -8.06 l1.58 0 z M217.42 18.8 q3.04 0 4.8 -1.54 t1.78 -4.24 q0 -2.88 -1.75 -4.42 t-4.89 -1.56 l-2.76 0 l0 11.76 l2.82 0 z M217.7 5.84 q3.56 0 5.57 1.92 t2.05 5.26 q0 1.96 -0.89 3.55 t-2.56 2.51 t-4.09 0.92 l-4.5 0 l0 -14.16 l4.42 0 z M247.60799999999998 5.84 l0 1.2 l-7.34 0 l0 5.04 l6.88 0 l0 1.2 l-6.88 0 l0 5.52 l7.66 0 l0 1.2 l-8.98 0 l0 -14.16 l8.66 0 z M267.876 5.48 q3.14 0 4.88 2.22 l-1.08 0.9 q-0.6 -0.9 -1.6 -1.41 t-2.2 -0.51 q-2.64 0 -4.3 1.74 t-1.7 4.5 q0 2.74 1.67 4.47 t4.33 1.77 q1.14 0 2.32 -0.57 t1.86 -1.63 l1.08 0.82 q-1.88 2.58 -5.26 2.58 q-3.28 -0.02 -5.27 -2.12 t-2.05 -5.32 q0 -3.26 2.05 -5.33 t5.27 -2.11 z M286.62399999999997 12.92 q0 2.7 1.66 4.45 t4.34 1.79 q2.7 0 4.34 -1.77 t1.66 -4.47 q0 -2.74 -1.64 -4.47 t-4.38 -1.77 q-2.68 0 -4.32 1.76 t-1.66 4.48 z M292.62399999999997 5.48 q2.16 0 3.82 0.95 t2.57 2.66 t0.93 3.83 q0 3.26 -2.06 5.33 t-5.26 2.11 q-3.22 0 -5.24 -2.09 t-2.08 -5.35 q0.02 -3.26 2.04 -5.32 t5.28 -2.12 z M317.79200000000003 12.08 q1.54 0 2.38 -0.69 t0.84 -1.83 t-0.82 -1.82 t-2.44 -0.7 l-2.86 0 l0 5.04 l2.9 0 z M317.392 5.84 q4.9 0 4.94 3.72 q0 3.14 -3.62 3.64 l4.12 6.8 l-1.5 0 l-3.98 -6.72 l-2.46 0 l0 6.72 l-1.32 0 l0 -14.16 l3.82 0 z M337.76000000000005 15.04 l6.5 0 l-3.2 -7.76 z M341.8 5.84 l5.96 14.16 l-1.48 0 l-1.54 -3.76 l-7.5 0 l-1.6 3.76 l-1.38 0 l6.18 -14.16 l1.36 0 z M366.868 5.48 q3.14 0 4.88 2.22 l-1.08 0.9 q-0.6 -0.9 -1.6 -1.41 t-2.2 -0.51 q-2.64 0 -4.3 1.74 t-1.7 4.5 q0 2.74 1.67 4.47 t4.33 1.77 q1.14 0 2.32 -0.57 t1.86 -1.63 l1.08 0.82 q-1.88 2.58 -5.26 2.58 q-3.28 -0.02 -5.27 -2.12 t-2.05 -5.32 q0 -3.26 2.05 -5.33 t5.27 -2.11 z M386.536 5.84 l0 14.16 l-1.32 0 l0 -14.16 l1.32 0 z M401.484 12.92 q0 2.7 1.66 4.45 t4.34 1.79 q2.7 0 4.34 -1.77 t1.66 -4.47 q0 -2.74 -1.64 -4.47 t-4.38 -1.77 q-2.68 0 -4.32 1.76 t-1.66 4.48 z M407.484 5.48 q2.16 0 3.82 0.95 t2.57 2.66 t0.93 3.83 q0 3.26 -2.06 5.33 t-5.26 2.11 q-3.22 0 -5.24 -2.09 t-2.08 -5.35 q0.02 -3.26 2.04 -5.32 t5.28 -2.12 z M410.004 2.0799999999999983 l-2.68 2.88 l-1 0 l2.08 -2.88 l1.6 0 z M430.132 5.84 l8.62 12.4 l0.04 0 l0 -12.4 l1.32 0 l0 14.16 l-1.7 0 l-8.62 -12.4 l-0.04 0 l0 12.4 l-1.32 0 l0 -14.16 l1.7 0 z"></path></g></svg>