<svg width="385" height="301" viewBox="0 0 385 301" fill="none" xmlns="http://www.w3.org/2000/svg">
<line x1="7" y1="62" x2="7" y2="214" stroke="white" stroke-width="4"/>
<path d="M29 109L29 214" stroke="white" stroke-width="4"/>
<line x1="55" y1="62" x2="55" y2="214" stroke="white" stroke-width="4"/>
<line x1="79" y1="62" x2="79" y2="214" stroke="white" stroke-width="4"/>
<line x1="103" y1="62" x2="103" y2="214" stroke="white" stroke-width="4"/>
<path d="M125 76V214" stroke="white" stroke-width="4"/>
<line x1="151" y1="62" x2="151" y2="214" stroke="white" stroke-width="4"/>
<path d="M173 51V214" stroke="white" stroke-width="4"/>
<path d="M197 60L197 175" stroke="white" stroke-width="4"/>
<path d="M221 63V213.5" stroke="white" stroke-width="4"/>
<path d="M245 49V199.5" stroke="white" stroke-width="4"/>
<path d="M269 61V211.5" stroke="white" stroke-width="4"/>
<path d="M293 23V173.5" stroke="white" stroke-width="4"/>
<path d="M317 0V150.5" stroke="white" stroke-width="4"/>
<path d="M341 15V165.5" stroke="white" stroke-width="4"/>
<path d="M365 61L365 212" stroke="white" stroke-width="4"/>
<path d="M26.3494 247.818V257.761H0.795455L0.795455 247.818H26.3494ZM5.66761 286L5.66761 246.724C5.66761 243.576 6.23106 240.966 7.35795 238.894C8.48485 236.823 10.0758 235.273 12.1307 234.246C14.1856 233.218 16.6051 232.705 19.3892 232.705C21.1293 232.705 22.8196 232.837 24.4602 233.102C26.1174 233.367 27.3438 233.599 28.1392 233.798L26.1506 243.642C25.6534 243.493 25.0734 243.377 24.4105 243.294C23.7476 243.195 23.1676 243.145 22.6705 243.145C21.3778 243.145 20.5078 243.418 20.0604 243.965C19.6129 244.512 19.3892 245.233 19.3892 246.128L19.3892 286H5.66761ZM42.8111 286.597C40.375 286.597 38.2207 286.199 36.348 285.403C34.492 284.591 33.0337 283.365 31.973 281.724C30.9124 280.084 30.3821 277.996 30.3821 275.46C30.3821 273.372 30.7384 271.591 31.451 270.116C32.1636 268.624 33.1579 267.406 34.434 266.462C35.71 265.517 37.1932 264.796 38.8836 264.299C40.5905 263.802 42.43 263.479 44.402 263.33C46.5398 263.164 48.255 262.965 49.5476 262.733C50.8568 262.484 51.8014 262.145 52.3814 261.714C52.9614 261.266 53.2515 260.678 53.2515 259.949V259.849C53.2515 258.855 52.8703 258.093 52.108 257.562C51.3457 257.032 50.3679 256.767 49.1748 256.767C47.8656 256.767 46.7967 257.057 45.9681 257.637C45.156 258.201 44.6672 259.071 44.5015 260.247H31.8736C32.0393 257.927 32.7768 255.789 34.086 253.834C35.4117 251.862 37.3424 250.287 39.8779 249.111C42.4134 247.918 45.5786 247.321 49.3736 247.321C52.108 247.321 54.5606 247.644 56.7316 248.29C58.9025 248.92 60.7503 249.807 62.2749 250.95C63.7995 252.077 64.9596 253.403 65.755 254.928C66.567 256.436 66.973 258.076 66.973 259.849V286H54.1463V280.631H53.848C53.0857 282.056 52.1577 283.208 51.064 284.086C49.9868 284.964 48.7522 285.602 47.3601 286C45.9846 286.398 44.4683 286.597 42.8111 286.597ZM47.2855 277.946C48.3296 277.946 49.3073 277.731 50.2188 277.3C51.1468 276.869 51.9008 276.247 52.4809 275.435C53.0609 274.623 53.3509 273.637 53.3509 272.477V269.295C52.9863 269.445 52.5969 269.585 52.1826 269.718C51.7848 269.851 51.354 269.975 50.89 270.091C50.4425 270.207 49.9619 270.315 49.4482 270.414C48.951 270.513 48.429 270.605 47.8821 270.688C46.8215 270.853 45.9515 271.127 45.2721 271.508C44.6092 271.872 44.112 272.328 43.7806 272.875C43.4657 273.405 43.3083 274.002 43.3083 274.665C43.3083 275.725 43.6811 276.537 44.4269 277.101C45.1726 277.664 46.1255 277.946 47.2855 277.946ZM94.0242 286.696C89.8812 286.696 86.3348 285.876 83.385 284.235C80.4352 282.578 78.1731 280.274 76.5988 277.325C75.0245 274.358 74.2373 270.92 74.2373 267.009C74.2373 263.098 75.0245 259.667 76.5988 256.717C78.1731 253.751 80.4352 251.447 83.385 249.807C86.3348 248.15 89.8812 247.321 94.0242 247.321C97.7695 247.321 101.009 248 103.744 249.359C106.495 250.702 108.624 252.607 110.132 255.077C111.64 257.529 112.403 260.413 112.419 263.727H99.6918C99.5095 261.722 98.9295 260.197 97.9518 259.153C96.9906 258.093 95.7477 257.562 94.2231 257.562C93.0299 257.562 91.9859 257.911 91.091 258.607C90.1961 259.286 89.5001 260.322 89.0029 261.714C88.5058 263.089 88.2572 264.821 88.2572 266.909C88.2572 268.997 88.5058 270.737 89.0029 272.129C89.5001 273.505 90.1961 274.54 91.091 275.237C91.9859 275.916 93.0299 276.256 94.2231 276.256C95.234 276.256 96.1289 276.024 96.9077 275.56C97.6866 275.079 98.3164 274.383 98.7969 273.472C99.2941 272.544 99.5924 271.417 99.6918 270.091H112.419C112.369 273.455 111.599 276.388 110.107 278.891C108.616 281.376 106.503 283.299 103.769 284.658C101.051 286.017 97.8026 286.696 94.0242 286.696ZM130.82 286.597C128.384 286.597 126.229 286.199 124.357 285.403C122.501 284.591 121.042 283.365 119.982 281.724C118.921 280.084 118.391 277.996 118.391 275.46C118.391 273.372 118.747 271.591 119.46 270.116C120.172 268.624 121.167 267.406 122.443 266.462C123.719 265.517 125.202 264.796 126.892 264.299C128.599 263.802 130.439 263.479 132.411 263.33C134.548 263.164 136.264 262.965 137.556 262.733C138.865 262.484 139.81 262.145 140.39 261.714C140.97 261.266 141.26 260.678 141.26 259.949V259.849C141.26 258.855 140.879 258.093 140.117 257.562C139.354 257.032 138.377 256.767 137.183 256.767C135.874 256.767 134.805 257.057 133.977 257.637C133.165 258.201 132.676 259.071 132.51 260.247H119.882C120.048 257.927 120.785 255.789 122.095 253.834C123.42 251.862 125.351 250.287 127.886 249.111C130.422 247.918 133.587 247.321 137.382 247.321C140.117 247.321 142.569 247.644 144.74 248.29C146.911 248.92 148.759 249.807 150.283 250.95C151.808 252.077 152.968 253.403 153.764 254.928C154.576 256.436 154.982 258.076 154.982 259.849V286H142.155V280.631H141.857C141.094 282.056 140.166 283.208 139.073 284.086C137.995 284.964 136.761 285.602 135.369 286C133.993 286.398 132.477 286.597 130.82 286.597ZM135.294 277.946C136.338 277.946 137.316 277.731 138.227 277.3C139.155 276.869 139.909 276.247 140.489 275.435C141.069 274.623 141.359 273.637 141.359 272.477V269.295C140.995 269.445 140.605 269.585 140.191 269.718C139.793 269.851 139.363 269.975 138.899 270.091C138.451 270.207 137.971 270.315 137.457 270.414C136.96 270.513 136.438 270.605 135.891 270.688C134.83 270.853 133.96 271.127 133.281 271.508C132.618 271.872 132.121 272.328 131.789 272.875C131.474 273.405 131.317 274.002 131.317 274.665C131.317 275.725 131.69 276.537 132.435 277.101C133.181 277.664 134.134 277.946 135.294 277.946ZM177.36 235.091V286H163.638V235.091H177.36ZM219.562 247.818L205.442 286H199.476L185.357 247.818H191.721L202.26 278.244H202.658L213.198 247.818H219.562ZM237.379 286.895C234.959 286.895 232.763 286.439 230.791 285.528C228.819 284.6 227.253 283.266 226.093 281.526C224.933 279.769 224.353 277.648 224.353 275.162C224.353 272.974 224.784 271.201 225.646 269.842C226.507 268.467 227.659 267.39 229.101 266.611C230.543 265.832 232.134 265.252 233.874 264.871C235.63 264.473 237.395 264.158 239.168 263.926C241.488 263.628 243.369 263.404 244.811 263.255C246.269 263.089 247.33 262.816 247.993 262.435C248.672 262.054 249.012 261.391 249.012 260.446V260.247C249.012 257.795 248.341 255.889 246.999 254.53C245.673 253.171 243.659 252.491 240.958 252.491C238.157 252.491 235.962 253.105 234.371 254.331C232.78 255.557 231.661 256.866 231.015 258.259L225.447 256.27C226.441 253.95 227.767 252.143 229.424 250.851C231.098 249.542 232.921 248.63 234.893 248.116C236.881 247.586 238.837 247.321 240.759 247.321C241.986 247.321 243.394 247.47 244.985 247.768C246.593 248.05 248.142 248.638 249.634 249.533C251.142 250.428 252.393 251.779 253.387 253.585C254.381 255.392 254.879 257.811 254.879 260.844V286H249.012V280.83H248.714C248.316 281.658 247.653 282.545 246.725 283.489C245.797 284.434 244.563 285.238 243.021 285.901C241.48 286.563 239.599 286.895 237.379 286.895ZM238.273 281.625C240.594 281.625 242.549 281.169 244.14 280.258C245.747 279.346 246.957 278.17 247.769 276.728C248.598 275.286 249.012 273.77 249.012 272.179V266.81C248.763 267.108 248.217 267.381 247.371 267.63C246.543 267.862 245.582 268.069 244.488 268.251C243.411 268.417 242.358 268.566 241.331 268.699C240.32 268.815 239.5 268.914 238.87 268.997C237.345 269.196 235.92 269.519 234.594 269.967C233.285 270.397 232.225 271.052 231.413 271.93C230.617 272.792 230.219 273.969 230.219 275.46C230.219 277.499 230.973 279.04 232.482 280.084C234.006 281.111 235.937 281.625 238.273 281.625ZM265.586 286V247.818H271.254V253.585H271.651C272.347 251.696 273.607 250.163 275.43 248.987C277.253 247.81 279.308 247.222 281.595 247.222C282.026 247.222 282.564 247.23 283.21 247.246C283.857 247.263 284.346 247.288 284.677 247.321V253.287C284.478 253.237 284.022 253.163 283.31 253.063C282.614 252.947 281.876 252.889 281.097 252.889C279.241 252.889 277.584 253.279 276.126 254.058C274.684 254.82 273.541 255.88 272.695 257.239C271.867 258.582 271.453 260.115 271.453 261.838V286H265.586ZM306.477 286.795C302.798 286.795 299.625 285.983 296.957 284.359C294.305 282.719 292.259 280.432 290.817 277.499C289.392 274.549 288.679 271.118 288.679 267.207C288.679 263.296 289.392 259.849 290.817 256.866C292.259 253.867 294.264 251.53 296.833 249.857C299.418 248.166 302.434 247.321 305.881 247.321C307.869 247.321 309.833 247.652 311.772 248.315C313.711 248.978 315.476 250.055 317.067 251.547C318.658 253.022 319.926 254.977 320.87 257.413C321.815 259.849 322.287 262.849 322.287 266.412V268.898H292.855V263.827H316.321C316.321 261.672 315.89 259.75 315.029 258.06C314.183 256.369 312.974 255.035 311.399 254.058C309.842 253.08 308.002 252.591 305.881 252.591C303.544 252.591 301.522 253.171 299.816 254.331C298.125 255.474 296.824 256.966 295.913 258.805C295.001 260.645 294.546 262.617 294.546 264.722V268.102C294.546 270.986 295.043 273.43 296.037 275.435C297.048 277.424 298.448 278.94 300.238 279.984C302.028 281.012 304.108 281.526 306.477 281.526C308.019 281.526 309.411 281.31 310.654 280.879C311.913 280.432 312.999 279.769 313.91 278.891C314.821 277.996 315.526 276.885 316.023 275.56L321.691 277.151C321.094 279.073 320.091 280.763 318.683 282.222C317.274 283.663 315.534 284.79 313.463 285.602C311.391 286.398 309.063 286.795 306.477 286.795ZM337.078 235.091V286H331.211V235.091H337.078ZM359.058 286.895C356.639 286.895 354.443 286.439 352.471 285.528C350.499 284.6 348.933 283.266 347.773 281.526C346.613 279.769 346.033 277.648 346.033 275.162C346.033 272.974 346.464 271.201 347.325 269.842C348.187 268.467 349.339 267.39 350.781 266.611C352.222 265.832 353.813 265.252 355.553 264.871C357.31 264.473 359.075 264.158 360.848 263.926C363.168 263.628 365.049 263.404 366.491 263.255C367.949 263.089 369.01 262.816 369.673 262.435C370.352 262.054 370.692 261.391 370.692 260.446V260.247C370.692 257.795 370.021 255.889 368.678 254.53C367.353 253.171 365.339 252.491 362.638 252.491C359.837 252.491 357.641 253.105 356.05 254.331C354.46 255.557 353.341 256.866 352.695 258.259L347.126 256.27C348.121 253.95 349.446 252.143 351.104 250.851C352.777 249.542 354.6 248.63 356.572 248.116C358.561 247.586 360.517 247.321 362.439 247.321C363.665 247.321 365.074 247.47 366.665 247.768C368.272 248.05 369.822 248.638 371.313 249.533C372.821 250.428 374.072 251.779 375.067 253.585C376.061 255.392 376.558 257.811 376.558 260.844V286H370.692V280.83H370.393C369.996 281.658 369.333 282.545 368.405 283.489C367.477 284.434 366.242 285.238 364.701 285.901C363.16 286.563 361.279 286.895 359.058 286.895ZM359.953 281.625C362.273 281.625 364.229 281.169 365.82 280.258C367.427 279.346 368.637 278.17 369.449 276.728C370.277 275.286 370.692 273.77 370.692 272.179V266.81C370.443 267.108 369.896 267.381 369.051 267.63C368.223 267.862 367.261 268.069 366.168 268.251C365.09 268.417 364.038 268.566 363.011 268.699C362 268.815 361.179 268.914 360.55 268.997C359.025 269.196 357.6 269.519 356.274 269.967C354.965 270.397 353.904 271.052 353.092 271.93C352.297 272.792 351.899 273.969 351.899 275.46C351.899 277.499 352.653 279.04 354.161 280.084C355.686 281.111 357.616 281.625 359.953 281.625Z" fill="white"/>
</svg>
